<?xml version="1.0" encoding="utf-8"?>
<!-- Generator: Adobe Illustrator 22.0.0, SVG Export Plug-In . SVG Version: 6.00 Build 0)  -->
<svg version="1.1" id="Livello_1" xmlns="http://www.w3.org/2000/svg" xmlns:xlink="http://www.w3.org/1999/xlink" x="0px" y="0px"
	 viewBox="0 0 64 64" style="enable-background:new 0 0 64 64;" xml:space="preserve">
<style type="text/css">
	.st0{fill:#0F4E8B;}
</style>
<g>
	<path class="st0" d="M63,41.6H1c-0.6,0-1.1-0.5-1.1-1.1V5.3C-0.1,2.9,1.8,1,4.2,1h55.6c2.4,0,4.3,1.9,4.3,4.3v35.3
		C64.1,41.1,63.6,41.6,63,41.6z M2.1,39.5h59.9V5.3c0-1.2-1-2.1-2.1-2.1H4.2c-1.2,0-2.1,1-2.1,2.1V39.5z"/>
	<path class="st0" d="M59.8,50.2H4.2c-2.4,0-4.3-1.9-4.3-4.3v-5.3c0-0.6,0.5-1.1,1.1-1.1h62c0.6,0,1.1,0.5,1.1,1.1v5.3
		C64.1,48.3,62.2,50.2,59.8,50.2z M2.1,41.6v4.3c0,1.2,1,2.1,2.1,2.1h55.6c1.2,0,2.1-1,2.1-2.1v-4.3H2.1z"/>
	<path class="st0" d="M35.2,45.9h-6.4c-0.6,0-1.1-0.5-1.1-1.1c0-0.6,0.5-1.1,1.1-1.1h6.4c0.6,0,1.1,0.5,1.1,1.1
		C36.3,45.4,35.8,45.9,35.2,45.9z"/>
	<path class="st0" d="M58.7,41.6H5.3c-0.6,0-1.1-0.5-1.1-1.1V6.3c0-0.6,0.5-1.1,1.1-1.1h53.4c0.6,0,1.1,0.5,1.1,1.1v34.2
		C59.8,41.1,59.3,41.6,58.7,41.6z M6.3,39.5h51.3V7.4H6.3V39.5z"/>
	<path class="st0" d="M45.9,63H18.1c-1.8,0-3.2-1.4-3.2-3.2c0-1.8,1.4-3.2,3.2-3.2h27.8c1.8,0,3.2,1.4,3.2,3.2
		C49.1,61.6,47.7,63,45.9,63z M18.1,58.7c-0.6,0-1.1,0.5-1.1,1.1c0,0.6,0.5,1.1,1.1,1.1h27.8c0.6,0,1.1-0.5,1.1-1.1
		c0-0.6-0.5-1.1-1.1-1.1H18.1z"/>
	<path class="st0" d="M43.8,58.7H20.2c-0.6,0-1.1-0.5-1.1-1.1c0-0.6,0.5-1.1,1.1-1.1c3.5,0,5.3-2.5,5.3-7.5c0-0.6,0.5-1.1,1.1-1.1
		h10.7c0.6,0,1.1,0.5,1.1,1.1c0,5,1.8,7.5,5.3,7.5c0.6,0,1.1,0.5,1.1,1.1C44.8,58.2,44.3,58.7,43.8,58.7z M25.4,56.6h13.1
		c-1.3-1.5-2.1-3.6-2.2-6.4h-8.6C27.5,53,26.8,55.1,25.4,56.6z"/>
	<path class="st0" d="M47.2,37.3c-0.3,0-0.6-0.1-0.8-0.3l-2.6-2.6L42.4,36c-0.3,0.3-0.7,0.4-1,0.3c-0.4-0.1-0.7-0.4-0.8-0.7
		l-3.2-10.7c-0.1-0.4,0-0.8,0.3-1.1c0.3-0.3,0.7-0.4,1.1-0.3l10.7,3.2c0.4,0.1,0.6,0.4,0.7,0.8s0,0.8-0.3,1l-1.4,1.4l2.6,2.6
		c0.4,0.4,0.4,1.1,0,1.5l-3,3C47.8,37.2,47.5,37.3,47.2,37.3z M43.9,32c0.4,0,0.7,0.1,1,0.4l2.3,2.4l1.5-1.5l-2.5-2.5
		c-0.2-0.2-0.4-0.5-0.4-0.9c0-0.3,0.1-0.6,0.4-0.9l0.8-0.8L40,26.1l2.1,7.1l0.8-0.8C43.2,32.1,43.5,32,43.9,32z"/>
	<path class="st0" d="M44.8,17H14.9c-0.6,0-1.1-0.5-1.1-1.1v-5.3c0-0.6,0.5-1.1,1.1-1.1h29.9c0.6,0,1.1,0.5,1.1,1.1V16
		C45.9,16.6,45.4,17,44.8,17z M16,14.9h27.8v-3.2H16V14.9z"/>
	<path class="st0" d="M27.7,27.7h-8.6c-0.6,0-1.1-0.5-1.1-1.1v-4.3c0-0.6,0.5-1.1,1.1-1.1h8.6c0.6,0,1.1,0.5,1.1,1.1v4.3
		C28.8,27.2,28.3,27.7,27.7,27.7z M20.2,25.6h6.4v-2.1h-6.4V25.6z"/>
	<path class="st0" d="M40.3,32H14.9c-0.6,0-1.1-0.5-1.1-1.1V10.6c0-0.6,0.5-1.1,1.1-1.1h29.9c0.6,0,1.1,0.5,1.1,1.1v15.8
		c0,0.3-0.2,0.7-0.4,0.9c-0.3,0.2-0.6,0.3-0.9,0.2L40,26.1l1.4,4.5c0.1,0.3,0,0.7-0.2,0.9C41,31.8,40.7,32,40.3,32z M16,29.9h22.9
		l-1.5-5c-0.1-0.4,0-0.8,0.3-1.1c0.3-0.3,0.7-0.4,1.1-0.3l5,1.5V11.7H16V29.9z"/>
</g>
</svg>
